<?xml version="1.0" encoding="utf-8"?>
<!-- Generator: Adobe Illustrator 25.0.1, SVG Export Plug-In . SVG Version: 6.00 Build 0)  -->
<svg version="1.0" id="katman_1" xmlns="http://www.w3.org/2000/svg" xmlns:xlink="http://www.w3.org/1999/xlink" x="0px" y="0px"
	 viewBox="0 0 560 400" style="enable-background:new 0 0 560 400;" xml:space="preserve">
<path d="M256.9,223.2c-3.8-3.5-8.5-5.7-13.8-5.3l10.1-10.7C260.4,208.8,256,219.1,256.9,223.2 M306.3,224.2l-8.5-4.7
	c-0.6-8.2,0-19.5,0.3-27.4l8.8,5L306.3,224.2z M260.7,197.1c-2.8,3.5-5.7,6-9.1,9.4c-1.6,0-2.5-1.9-4.1-2.8l0.3-12.6
	C251.9,193.4,255.7,196.5,260.7,197.1L260.7,197.1z M280.2,188.9l-0.3-9.8c-4.4,3.5-8.5,9.1-13.2,12.6c-5.3-0.6-10.1-3.5-14.5-6.3
	c-3.8,3.5-7.9,6.3-12.6,8.5c0.3,4.7-0.6,8.5-0.3,13.2l6.6,5.3c-3.5,4.7-10.4,8.5-9.8,14.5c0,1.6,0,3.8,1.6,3.8
	c-0.9-1.9-1.6-6,1.9-6.9c5-1.3,8.8,1.9,12.6,4.7c4.1-3.2,8.2-6.3,12.6-8.5l0.3-13.8l-6.3-4.7c3.5-3.1,6.3-6,9.8-9.4
	c0.9,0,2.5-0.6,3.1,0.3l-0.3,25.5l-1.6,3.8c3.1,2.2,6.9,5.7,10.4,7.2l8.2-7.2c4.1,2.5,8.5,5.4,12.9,7.9c4.4-4.1,8.5-7.2,13.5-9.4
	c-0.6-7.5-0.6-19.5,0-26.7c-3.8-2.5-7.9-4.7-12-6.6c-4.1,3.8-8.5,6.6-13.2,8.8l-0.3,23.6c-1.9,0.9-2.2,3.5-4.7,4.1
	c-2.2-0.3-4.1-2.2-5.4-4.1c0.3-8.8,0-19.5,0.9-28c2.2,0.3,5.7,0.3,8.2,0c0-0.6,0.3-1.6-0.3-1.9L280.2,188.9z M184.9,199.6l-0.3,20.8
	c2.5,3.5,5.4,0.3,8.2-0.6l0.3-15.1C190.8,202.5,188,200.6,184.9,199.6z M408.6,204.7c2.5,4.7,3.1,11.6,0,16.4
	c-3.1,3.1-7.9,4.4-12.6,4.1l-0.6-27.4C400.7,195.6,406,200,408.6,204.7z M381.8,213.8c-0.6,1.6-0.6,3.5-2.2,4.4
	c-5.7-5.3-7.2-13.5-6.3-20.4c0.6-4.4,3.5-10.1,8.2-12.9L381.8,213.8z M406.4,186.4c-2.8,3.8-7.6,6.9-10.7,9.8l-0.3-15.1
	C399.4,182.3,403.2,184.2,406.4,186.4z M393.8,224.8c-5-0.3-9.4-2.8-13.2-5.7c4.1-2.2,7.5-5.4,8.8-9.8v-29.6c0.9-1.6,3.1,0,4.4,0.3
	L393.8,224.8z M397.2,172.3c-9.4,7.9-19.8,12.9-28.9,21.4c-4.4,6.9-4.4,14.5-1.3,22c4.4,10.1,15.4,15.4,26.4,15.1
	c6-1.9,11.6-4.7,16.7-9.4c2.8-3.8,9.8-7.2,7.9-13.8c0.3-7.9-6.6-14.2-13.2-16.7c3.8-4.1,9.8-9.1,13.5-12.9l-0.9-0.9l-3.5,3.1
	C408.2,177.9,402.6,175.7,397.2,172.3z M490.4,197.8l-0.3,26.4c-3.1,0.3-5.7-3.1-8.8-4.4v-22.7c0.9-1.3,2.5-2.5,4.1-3.1
	C487.5,194,489.4,196.2,490.4,197.8L490.4,197.8z M475.3,177.6c-1.9-0.3-3.5-2.5-5.7-1.9c1.9,1.6,3.1,4.1,3.5,6.3v36.2l-1.3,4.4
	l13.2,7.9c3.8-4.4,9.1-7.2,13.5-10.1c-0.6-6.9-0.3-17.6,0-24.5c-1.3-3.5-4.7-7.2-8.2-7.9l-9.1,7.2c-0.9-1.9,0.3-4.7,0-7.2
	c0.3-4.7-2.2-12.9,4.1-15.1C481.5,172.3,477.8,174.5,475.3,177.6z M457,225.1c-3.5-1.3-6-3.5-9.1-5c0-8.5-0.3-19.2,0.3-26.7l8.8,4.7
	L457,225.1z M427.1,177.3c-1.9-0.3-3.5-2.2-5-2.2c0.3,1.3,1.6,2.5,1.9,4.1l0.3,41.2l-1.9,3.8c2.8,2.2,5.7,4.4,8.8,6.3l7.9-6.9
	c4.4,1.6,8.5,5,13.2,7.2c3.8-3.8,8.2-7.6,13.2-9.4c-0.6-8.2-0.6-18.9,0-27.1l-12.3-6.6c-4.1,4.4-8.8,7.2-13.8,9.4L440,222
	c-1.6,0.9-3.1,2.2-4.7,2.5c-5-0.6-3.5-5.7-3.8-8.2c0.3-11.6,0.3-21.4,0.3-32.7c0.3-4.4-0.6-7.9,3.5-10.7
	C432.5,172.9,429,174.5,427.1,177.3L427.1,177.3z M521.5,201.5l-8.5,6c0.3-5.3,0-9.4,0.3-14.2C516.2,195.2,519.6,198.7,521.5,201.5
	L521.5,201.5z M529.4,197.8l-10.7-10.4c-4.7,3.1-8.8,7.2-13.8,9.4l0.3,4.7c-0.6,6,0.9,14.8-1.3,20.4c4.1,3.5,9.1,6,13.8,8.5
	c4.1-4.1,8.8-7.6,12.3-11.6c-0.3-0.3,0-0.9-0.6-0.6l-6.6,5c-3.5,0.9-6.6-1.9-9.4-4.1l-0.3-9.4L529.4,197.8z M127.3,200l-8.8,6.6
	l0.6-14.5C121.6,194.3,124.8,197.4,127.3,200z M45.2,215.1l-0.9,1.3c-6-6.9-7.9-17.9-4.4-25.5l6.3-4.7
	C46.8,196.8,47.1,204.7,45.2,215.1z M59.3,222.9c-3.1,0-7.2-1.6-10.4-3.1c-0.9-1.3-2.5-1.3-3.8-2.5c14.5-8.5,6.9-23,9.4-35.9L59,182
	L59.3,222.9z M80.7,174.2l-2.8-3.1C77,185.2,77,202.2,77,218.5l-0.6,0.9c-4.7,2.8-10.7,5.7-15.7,3.5c0.6-13.8-0.3-25.8,0.3-40.6
	c2.8,0.3,6.3,0.3,9.1-0.3l6.3-11l-0.6-0.3c-0.9-0.3-0.9,1.6-1.6,2.2c-4.4,4.7-12.3,1.6-17.6,1.6c-8.2-0.3-18.3-4.4-23.6,4.4
	c-0.6,2.8-1.3,6.9,1.9,9.1c-0.3-1.6-1.9-2.5-1.3-4.4c0.3-1.6,1.6-3.5,3.1-3.1c4.7-0.6,11.6,0,16,1.3c-6.6,3.8-13.8,7.2-19.8,12.3
	c-3.8,6.9-3.8,13.5-0.6,20.8c5,10.4,16.4,15.1,28,14.8l14.5-7.5l6.9,5.7c2.8,2.2,5.3-2.8,7.2-4.4l-3.8-3.8l0.3-23.6
	c1.9-1.9,3.8-3.8,6.3-3.8c1.6,0.3,3.1,1.9,3.1,3.5v27.7l1.9,3.5c5.4,6,9.1-4.1,14.2-4.4l11.3,7.2c4.1-3.8,9.1-7.9,12.6-11.3
	c-2.2-0.6-3.5,2.5-5.4,3.8c-2.5,1.3-4.1,0.9-6.3-0.6c-6.6-1.3-4.7-7.9-4.7-12.6l16.4-11.6c-3.5-3.8-7.2-7.2-11-10.4
	c-4.1,3.5-8.5,6.9-13.2,9.1v24.2l-0.9,1c-1.9,1.9-4.7,3.8-6.6,0.6c-0.3-7.6-0.6-19.8,0-27.1l-0.6-2.5c-1.6-2.5-4.1-5.3-7.2-5.7
	c-3.5,2.2-6.6,5.3-9.8,7.2c0.6-8.2-2.5-18.9,3.5-24.5C85.1,169.1,82.3,171,80.7,174.2z M224.8,223.2l-8.5-4.7
	c-0.6-8.8-0.3-19.5,0.3-27.4l8.8,4.7L224.8,223.2z M222,185.5c-4.4,4.1-10.1,6.9-14.2,9.8c0.3,7.5,0.3,15.1-0.3,23l-1.3,2.2
	c4.1,2.8,8.8,5.7,13.2,8.2c4.7-3.8,9.1-6.9,14.2-9.4c-0.3-8.2-0.6-19.5,0.6-27.1L222,185.5z M326.4,187.7c-1.9-1.3-3.8,2.2-6,3.1
	c-1.9,1.9,1.6,3.1,2.2,5l-0.6,23.6c-0.3,1.6-1.6,2.8-1.9,3.8l7.9,6.3l5.4-4.7c0-1.9-3.1-2.8-3.8-4.7l0.9-23.9
	c1.6-0.9,3.1-3.1,5.7-3.1c1.6,0.3,3.5,2.2,3.8,3.8c0.3,7.6,0,17.9-0.6,26.4c0.9,3.1,3.5,5.4,6,6.6c3.5-2.2,6.9-5.3,9.4-7.9
	c-0.6-0.3-1.6,0.6-2.2,1.3c-1.3,2.2-3.5,0.9-4.7-0.3c-1.3-7.6,0.3-18.2,0-25.8c0.9-2.5-0.9-5-2.8-6.9c-4.7-7.5-9.4,3.1-14.2,4.4
	C329.6,192.4,328.7,189.6,326.4,187.7z M185.8,175.7c-11,5-5,19.8-7.6,27.7c-1.9,4.4-6.9,7.9-10.7,10.1c5.7,0.6,10.4,3.1,15.1,5.7
	l1.3-33.7c0-0.6,0.9-0.9,1.3-0.3v13.5c3.1-1.6,6.3-3.5,8.8-6.3C194.3,185.8,189,181.1,185.8,175.7L185.8,175.7z M153.7,174.5
	c-2.5,3.8-2.2,7.5,0,11.3h0.3c0-0.6-0.3-0.9-0.3-1.3c-1.3-1.9-0.3-4.4,0.6-6c5-2.2,11-0.6,15.4,0.3c-5.7,3.8-11,9.4-10.1,16.7h-6
	c-1.6,0.9-3.8,1.9-4.1,4.1c-0.3,1.6-0.6,3.8,0.9,4.7c-0.6-1.6-0.3-2.8,0.3-4.4c1.3-0.9,3.1-0.6,4.7-0.9c3.5,0.6,5.3,3.1,4.1,6.3
	c0.3,3.1-2.2,5.7-4.1,7.2l3.8-1.3c10.7-4.1,5.7-15.7,7.6-24.9c0.9-6.6,7.6-11.3,12.9-13.5C170.4,173.2,161.9,167.6,153.7,174.5z
	 M202.2,187.7c-2.2,3.1-6,4.4-8.8,7.2c2.8,2.5,6.3,4.1,9.1,6.3c-1.6,5.4-0.9,12-1.3,17c-6.6,2.2-13.8,4.1-18.6,9.8
	c-8.8-4.4-18.9-11.6-28.6-6c-2.2,1.9-2.5,6.3-0.9,8.8c-1.6,0.6-1.9-2.5-2.2-3.8c-0.9-3.2,1.6-6,3.1-8.8c4.7-6.9,15.7-1.6,17-12
	c0.6-6.6-0.9-14.5,1.6-20.8c5-7.5,12.6-10.4,19.5-15.7C195.6,175.4,200.3,181.1,202.2,187.7L202.2,187.7z"/>
</svg>
